<mxfile host="app.diagrams.net" agent="Mozilla/5.0 (Windows NT 10.0; Win64; x64) AppleWebKit/537.36 (KHTML, like Gecko) Chrome/135.0.0.0 Safari/537.36 Edg/135.0.0.0" version="26.2.9">
  <diagram name="第 1 页" id="seyzkeZ7yCL_QnJ9LsVM">
    <mxGraphModel dx="1036" dy="536" grid="1" gridSize="10" guides="1" tooltips="1" connect="1" arrows="1" fold="1" page="1" pageScale="1" pageWidth="827" pageHeight="1169" math="0" shadow="0">
      <root>
        <mxCell id="0" />
        <mxCell id="1" parent="0" />
        <mxCell id="Fukh44lObKqDawehAdnI-3" value="" style="edgeStyle=orthogonalEdgeStyle;rounded=0;orthogonalLoop=1;jettySize=auto;html=1;" edge="1" parent="1" source="Fukh44lObKqDawehAdnI-1" target="Fukh44lObKqDawehAdnI-2">
          <mxGeometry relative="1" as="geometry" />
        </mxCell>
        <mxCell id="Fukh44lObKqDawehAdnI-5" value="" style="edgeStyle=orthogonalEdgeStyle;rounded=0;orthogonalLoop=1;jettySize=auto;html=1;" edge="1" parent="1" source="Fukh44lObKqDawehAdnI-1" target="Fukh44lObKqDawehAdnI-4">
          <mxGeometry relative="1" as="geometry" />
        </mxCell>
        <mxCell id="Fukh44lObKqDawehAdnI-1" value="预审-信评通过" style="rounded=0;whiteSpace=wrap;html=1;" vertex="1" parent="1">
          <mxGeometry width="120" height="60" as="geometry" />
        </mxCell>
        <mxCell id="Fukh44lObKqDawehAdnI-2" value="&lt;div style=&quot;display: flex; line-height: 20px; padding-left: 8px; gap: 12px; user-select: text; margin-top: 2px; color: rgb(31, 31, 31); font-family: system-ui, sans-serif; text-align: start; background-color: rgb(255, 255, 255);&quot; class=&quot;row&quot;&gt;&lt;div style=&quot;word-break: break-all; display: flex; align-items: center; gap: 2px;&quot; class=&quot;header-value&quot;&gt;/transaApproval/updateApproval&lt;/div&gt;&lt;/div&gt;" style="whiteSpace=wrap;html=1;rounded=0;" vertex="1" parent="1">
          <mxGeometry x="200" width="120" height="60" as="geometry" />
        </mxCell>
        <mxCell id="Fukh44lObKqDawehAdnI-7" value="" style="edgeStyle=orthogonalEdgeStyle;rounded=0;orthogonalLoop=1;jettySize=auto;html=1;" edge="1" parent="1" source="Fukh44lObKqDawehAdnI-4" target="Fukh44lObKqDawehAdnI-6">
          <mxGeometry relative="1" as="geometry" />
        </mxCell>
        <mxCell id="Fukh44lObKqDawehAdnI-4" value="排序" style="whiteSpace=wrap;html=1;rounded=0;" vertex="1" parent="1">
          <mxGeometry y="100" width="120" height="60" as="geometry" />
        </mxCell>
        <mxCell id="Fukh44lObKqDawehAdnI-9" value="" style="edgeStyle=orthogonalEdgeStyle;rounded=0;orthogonalLoop=1;jettySize=auto;html=1;" edge="1" parent="1" source="Fukh44lObKqDawehAdnI-6" target="Fukh44lObKqDawehAdnI-8">
          <mxGeometry relative="1" as="geometry" />
        </mxCell>
        <mxCell id="Fukh44lObKqDawehAdnI-6" value="更新审批" style="whiteSpace=wrap;html=1;rounded=0;" vertex="1" parent="1">
          <mxGeometry y="210" width="120" height="60" as="geometry" />
        </mxCell>
        <mxCell id="Fukh44lObKqDawehAdnI-11" value="" style="edgeStyle=orthogonalEdgeStyle;rounded=0;orthogonalLoop=1;jettySize=auto;html=1;" edge="1" parent="1" source="Fukh44lObKqDawehAdnI-8" target="Fukh44lObKqDawehAdnI-10">
          <mxGeometry relative="1" as="geometry" />
        </mxCell>
        <mxCell id="Fukh44lObKqDawehAdnI-8" value="设置正审批和预审批的类型" style="whiteSpace=wrap;html=1;rounded=0;" vertex="1" parent="1">
          <mxGeometry x="200" y="210" width="120" height="60" as="geometry" />
        </mxCell>
        <mxCell id="Fukh44lObKqDawehAdnI-13" value="" style="edgeStyle=orthogonalEdgeStyle;rounded=0;orthogonalLoop=1;jettySize=auto;html=1;" edge="1" parent="1" source="Fukh44lObKqDawehAdnI-10" target="Fukh44lObKqDawehAdnI-12">
          <mxGeometry relative="1" as="geometry" />
        </mxCell>
        <mxCell id="Fukh44lObKqDawehAdnI-10" value="根据交易类型分组" style="whiteSpace=wrap;html=1;rounded=0;" vertex="1" parent="1">
          <mxGeometry x="200" y="320" width="120" height="60" as="geometry" />
        </mxCell>
        <mxCell id="Fukh44lObKqDawehAdnI-15" value="" style="edgeStyle=orthogonalEdgeStyle;rounded=0;orthogonalLoop=1;jettySize=auto;html=1;" edge="1" parent="1" source="Fukh44lObKqDawehAdnI-12" target="Fukh44lObKqDawehAdnI-14">
          <mxGeometry relative="1" as="geometry" />
        </mxCell>
        <mxCell id="Fukh44lObKqDawehAdnI-12" value="查询交易历史数据" style="whiteSpace=wrap;html=1;rounded=0;" vertex="1" parent="1">
          <mxGeometry x="200" y="430" width="120" height="60" as="geometry" />
        </mxCell>
        <mxCell id="Fukh44lObKqDawehAdnI-17" value="" style="edgeStyle=orthogonalEdgeStyle;rounded=0;orthogonalLoop=1;jettySize=auto;html=1;" edge="1" parent="1" source="Fukh44lObKqDawehAdnI-14" target="Fukh44lObKqDawehAdnI-16">
          <mxGeometry relative="1" as="geometry" />
        </mxCell>
        <mxCell id="Fukh44lObKqDawehAdnI-14" value="查询当前人员所处的审批节点" style="whiteSpace=wrap;html=1;rounded=0;fontColor=light-dark(#16a278, #ededed);" vertex="1" parent="1">
          <mxGeometry x="200" y="525" width="120" height="60" as="geometry" />
        </mxCell>
        <mxCell id="Fukh44lObKqDawehAdnI-19" value="" style="edgeStyle=orthogonalEdgeStyle;rounded=0;orthogonalLoop=1;jettySize=auto;html=1;" edge="1" parent="1" source="Fukh44lObKqDawehAdnI-16" target="Fukh44lObKqDawehAdnI-18">
          <mxGeometry relative="1" as="geometry" />
        </mxCell>
        <mxCell id="Fukh44lObKqDawehAdnI-22" style="edgeStyle=orthogonalEdgeStyle;rounded=0;orthogonalLoop=1;jettySize=auto;html=1;exitX=1;exitY=0.5;exitDx=0;exitDy=0;entryX=0;entryY=0.5;entryDx=0;entryDy=0;" edge="1" parent="1" source="Fukh44lObKqDawehAdnI-16" target="Fukh44lObKqDawehAdnI-20">
          <mxGeometry relative="1" as="geometry" />
        </mxCell>
        <mxCell id="Fukh44lObKqDawehAdnI-23" style="edgeStyle=orthogonalEdgeStyle;rounded=0;orthogonalLoop=1;jettySize=auto;html=1;exitX=1;exitY=0.5;exitDx=0;exitDy=0;entryX=0;entryY=0.5;entryDx=0;entryDy=0;" edge="1" parent="1" source="Fukh44lObKqDawehAdnI-16" target="Fukh44lObKqDawehAdnI-21">
          <mxGeometry relative="1" as="geometry" />
        </mxCell>
        <mxCell id="Fukh44lObKqDawehAdnI-16" value="&lt;font style=&quot;color: light-dark(rgb(28, 23, 23), rgb(237, 237, 237));&quot;&gt;approvalDire&lt;/font&gt;" style="whiteSpace=wrap;html=1;fontColor=light-dark(#16a278, #ededed);rounded=0;" vertex="1" parent="1">
          <mxGeometry x="200" y="640" width="120" height="60" as="geometry" />
        </mxCell>
        <mxCell id="Fukh44lObKqDawehAdnI-18" value="审批通过" style="whiteSpace=wrap;html=1;fontColor=light-dark(#231010, #ededed);rounded=0;" vertex="1" parent="1">
          <mxGeometry x="370" y="640" width="120" height="60" as="geometry" />
        </mxCell>
        <mxCell id="Fukh44lObKqDawehAdnI-20" value="审批驳回" style="rounded=0;whiteSpace=wrap;html=1;" vertex="1" parent="1">
          <mxGeometry x="370" y="730" width="120" height="60" as="geometry" />
        </mxCell>
        <mxCell id="Fukh44lObKqDawehAdnI-21" value="折扣修改" style="rounded=0;whiteSpace=wrap;html=1;" vertex="1" parent="1">
          <mxGeometry x="370" y="820" width="120" height="60" as="geometry" />
        </mxCell>
      </root>
    </mxGraphModel>
  </diagram>
</mxfile>
